<svg xmlns="http://www.w3.org/2000/svg" viewBox="0 0 1440 900" role="img" aria-label="Sanchika identity reset shape evidence at desktop">
  <defs>
    <linearGradient id="field" x1="0" y1="0" x2="1" y2="1"><stop stop-color="#10151d"/><stop offset="1" stop-color="#1e2932"/></linearGradient>
    <linearGradient id="thread" x1="0" y1="0" x2="1" y2="0"><stop stop-color="#de523e"/><stop offset=".5" stop-color="#e9c46a"/><stop offset="1" stop-color="#83c7ba"/></linearGradient>
  </defs>
  <rect width="1440" height="900" fill="url(#field)"/>
  <g font-family="Arial, Helvetica, sans-serif" fill="#f4f0e8"><text x="68" y="84" font-size="34" font-weight="700" letter-spacing="-1">Sanchika</text><text x="1090" y="80" font-size="13" letter-spacing="2">SHAPE / LIVING COLLECTION</text></g>
  <path d="M68 113H1372" stroke="#81909a" opacity=".5"/>
  <text x="68" y="255" fill="#f4f0e8" font-family="Arial, Helvetica, sans-serif" font-size="92" font-weight="600" letter-spacing="-5">A system can hold a feeling.</text>
  <text x="74" y="314" fill="#b7c3c8" font-family="Arial, Helvetica, sans-serif" font-size="26">A code-native shape record: collection, discernment, and a human gap remain visible.</text>
  <g transform="translate(72 410)">
    <text x="0" y="0" fill="#de523e" font-family="Arial, Helvetica, sans-serif" font-size="16" letter-spacing="3">INTENT</text>
    <text x="0" y="48" fill="#f4f0e8" font-family="Georgia, serif" font-size="44">what matters</text>
    <text x="330" y="0" fill="#e9c46a" font-family="Arial, Helvetica, sans-serif" font-size="16" letter-spacing="3">GRAMMAR</text>
    <text x="330" y="48" fill="#f4f0e8" font-family="Georgia, serif" font-size="44">how it coheres</text>
    <text x="744" y="0" fill="#83c7ba" font-family="Arial, Helvetica, sans-serif" font-size="16" letter-spacing="3">CRAFT</text>
    <text x="744" y="48" fill="#f4f0e8" font-family="Georgia, serif" font-size="44">what it becomes</text>
    <path d="M212 78 C300 78 290 78 314 78 M637 78 C718 78 708 78 730 78" stroke="url(#thread)" stroke-width="4" stroke-linecap="round"/>
    <path d="M0 151 C180 54 294 250 476 151 S785 52 936 151 S1183 247 1296 151" fill="none" stroke="url(#thread)" stroke-width="78" stroke-linecap="round"/>
    <path d="M0 151 C180 54 294 250 476 151 S785 52 936 151 S1183 247 1296 151" fill="none" stroke="#f4f0e8" stroke-opacity=".7" stroke-width="2" stroke-dasharray="7 12"/>
    <path d="M618 82v139M678 82v139" stroke="#10151d" stroke-width="17"/>
    <text x="612" y="263" fill="#f4f0e8" font-family="Arial, Helvetica, sans-serif" font-size="14" letter-spacing="1.6">WITNESS JOINT</text>
  </g>
  <g transform="translate(72 727)" font-family="Arial, Helvetica, sans-serif"><text fill="#b7c3c8" font-size="17">The product proof follows this identity; it does not impersonate it.</text><text x="930" fill="#b7c3c8" font-size="14" letter-spacing="1.4">1440PX / SHAPE EVIDENCE</text></g>
</svg>
